
<svg xmlns="http://www.w3.org/2000/svg" fill="none" >

<symbol  viewBox="0 0 24 24" id="heart">
<path d="M12 22.6648C11.6583 22.6648 11.3289 22.541 11.0722 22.3162C10.1026 21.4684 9.16789 20.6717 8.34318 19.969L8.33897 19.9653C5.92107 17.9048 3.83312 16.1254 2.38037 14.3725C0.756407 12.4129 0 10.555 0 8.52523C0 6.55318 0.676207 4.73385 1.90393 3.40212C3.1463 2.05465 4.851 1.31252 6.70458 1.31252C8.08995 1.31252 9.35869 1.75051 10.4754 2.61422C11.039 3.05019 11.5499 3.58376 12 4.20614C12.4502 3.58376 12.9609 3.05019 13.5247 2.61422C14.6415 1.75051 15.9102 1.31252 17.2956 1.31252C19.149 1.31252 20.8538 2.05465 22.0962 3.40212C23.3239 4.73385 24 6.55318 24 8.52523C24 10.555 23.2437 12.4129 21.6198 14.3723C20.167 16.1254 18.0793 17.9046 15.6617 19.9649C14.8355 20.6688 13.8993 21.4668 12.9276 22.3166C12.6711 22.541 12.3415 22.6648 12 22.6648ZM6.70458 2.71841C5.24834 2.71841 3.91058 3.29958 2.93737 4.355C1.9497 5.42635 1.4057 6.90731 1.4057 8.52523C1.4057 10.2323 2.04016 11.7591 3.4627 13.4755C4.83764 15.1346 6.88274 16.8774 9.25065 18.8954L9.25505 18.8991C10.0829 19.6046 11.0213 20.4044 11.998 21.2584C12.9805 20.4027 13.9204 19.6016 14.7499 18.895C17.1176 16.877 19.1625 15.1346 20.5374 13.4755C21.9598 11.7591 22.5943 10.2323 22.5943 8.52523C22.5943 6.90731 22.0503 5.42635 21.0626 4.355C20.0896 3.29958 18.7516 2.71841 17.2956 2.71841C16.2288 2.71841 15.2494 3.05752 14.3846 3.72622C13.6139 4.32241 13.077 5.07607 12.7622 5.60342C12.6004 5.8746 12.3155 6.03646 12 6.03646C11.6845 6.03646 11.3996 5.8746 11.2377 5.60342C10.9231 5.07607 10.3863 4.32241 9.6154 3.72622C8.75059 3.05752 7.77116 2.71841 6.70458 2.71841Z" fill="black"/>
</symbol>


<symbol  viewBox="0 0 25 25" id="person">
<path d="M12.5 0C5.60762 0 0 5.60762 0 12.5C0 19.3923 5.60762 24.9999 12.5 24.9999C19.3923 24.9999 24.9999 19.3923 24.9999 12.5C24.9999 5.60762 19.3924 0 12.5 0ZM12.5 23.913C6.2065 23.913 1.08694 18.7934 1.08694 12.5C1.08694 6.2065 6.2065 1.08694 12.5 1.08694C18.7934 1.08694 23.913 6.2065 23.913 12.5C23.913 18.7934 18.7934 23.913 12.5 23.913Z" fill="#000"/>
<path d="M12.4999 11.9558C8.60425 11.9558 5.43469 15.1253 5.43469 19.021C5.43469 19.321 5.67819 19.5645 5.97819 19.5645C6.27819 19.5645 6.52168 19.3209 6.52168 19.0209C6.52168 15.7242 9.20318 13.0427 12.4999 13.0427C15.7967 13.0427 18.4782 15.7242 18.4782 19.0209C18.4782 19.3209 18.7217 19.5644 19.0217 19.5644C19.3217 19.5644 19.5652 19.3209 19.5652 19.0209C19.5652 15.1253 16.3956 11.9558 12.4999 11.9558Z" fill="#000"/>
<path d="M12.4999 3.26091C10.4021 3.26091 8.69556 4.96741 8.69556 7.06527C8.69556 9.16313 10.4021 10.8696 12.4999 10.8696C14.5978 10.8696 16.3043 9.16308 16.3043 7.06527C16.3043 4.96746 14.5978 3.26091 12.4999 3.26091ZM12.4999 9.78264C11.0021 9.78264 9.78254 8.56308 9.78254 7.06527C9.78254 5.56746 11.0021 4.3479 12.4999 4.3479C13.9977 4.3479 15.2173 5.56746 15.2173 7.06527C15.2173 8.56308 13.9978 9.78264 12.4999 9.78264Z" fill="#000"/>
</symbol>


<symbol  viewBox="0 0 25 25" id="scales">
<g clip-path="url(#clip0)">
<path d="M13.0078 19.585V3.1592H19.3506C19.3506 3.1592 15.9082 12.5586 15.9717 12.6953C16.1719 14.751 17.959 16.3281 20.083 16.3281C22.2021 16.3281 23.9355 14.7559 24.1846 12.7051C24.2529 12.5635 20.8105 3.1592 20.8105 3.1592H21.4014V2.1094H13.0029V0.537132H11.9824V2.1094H3.58398V3.1592H4.17969C4.17969 3.1592 0.78125 12.3926 0.78125 12.5C0.883789 14.6533 2.71484 16.3281 4.90234 16.3281C7.08984 16.3281 8.92578 14.6485 9.07715 12.5C9.07715 12.4365 5.63477 3.1592 5.63477 3.1592H11.9775V19.5801H0.537109V24.4629H24.4629V19.585H13.0078ZM20.083 15.2832C18.6084 15.2832 17.3828 14.2871 17.0264 12.9737H23.1348C22.7832 14.2823 21.5625 15.2832 20.083 15.2832ZM17.1338 11.9776L20.0879 4.10647L22.9883 11.9776H17.1338ZM4.91699 15.2832C3.44238 15.2832 2.2168 14.2871 1.86035 12.9737H7.96875C7.6123 14.2823 6.3916 15.2832 4.91699 15.2832ZM2.01172 11.9776L4.96582 4.10647L7.86621 11.9776H2.01172ZM23.4961 23.4668H1.55762V20.6348H23.4961V23.4668Z" fill="black"/>
</g>
<defs>
<clipPath id="clip0">
<rect width="25" height="25" fill="white"/>
</clipPath>
</defs>
</symbol>


<symbol  viewBox="0 0 26 26" id="cart">
<path d="M23.5879 15.2903L25.4414 6.25119H7.17539L6.54063 3.24494L1.03594 0.558617L0.558594 1.50823L5.58594 3.93557L8.125 16.0621H22.8008C22.8008 16.0621 24.248 16.9711 23.6895 18.1188C23.4406 18.4742 23.0547 18.911 22.3641 18.911H7.75938V19.9571H22.3691C23.3746 19.9571 24.2227 19.4289 24.7 18.586C25.6344 16.8391 23.5879 15.2903 23.5879 15.2903ZM9.02891 15.0008L7.38867 7.30237H24.1719L22.5824 15.0008H9.02891Z" fill="black"/>
<path d="M10.7758 21.4349C9.66372 21.4349 8.76489 22.3286 8.76489 23.4357C8.76489 24.5427 9.66372 25.4365 10.7758 25.4365C11.8879 25.4365 12.7868 24.5427 12.7868 23.4357C12.7868 22.3286 11.8879 21.4349 10.7758 21.4349ZM10.7758 24.3853C10.2477 24.3853 9.82114 23.9638 9.82114 23.4357C9.82114 22.9075 10.2426 22.4861 10.7758 22.4861C11.309 22.4861 11.7305 22.9075 11.7305 23.4357C11.7305 23.9638 11.304 24.3853 10.7758 24.3853Z" fill="black"/>
<path d="M21.577 21.4349C20.4649 21.4349 19.566 22.3286 19.566 23.4357C19.566 24.5427 20.4649 25.4415 21.577 25.4415C22.6891 25.4415 23.6438 24.5478 23.5879 23.4407C23.5879 22.3337 22.6891 21.4349 21.577 21.4349ZM22.5317 23.4407C22.5317 23.9689 22.1102 24.3904 21.577 24.3904C21.0438 24.3904 20.6223 23.9689 20.6223 23.4407C20.6223 22.9126 21.0438 22.4911 21.577 22.4911C22.1102 22.4911 22.5825 22.9126 22.5317 23.4407Z" fill="black"/>
</symbol>




<symbol  viewBox="0 0 139 45"  id="logo">

<path d="M74.19 17.1287H67.74L68.7 12.4187H87.51L86.55 17.1287H80.13L76.86 33.4187H70.92L74.19 17.1287ZM93.2107 18.9587C94.5707 17.5787 96.5307 16.8887 99.0907 16.8887L98.1007 22.0187C97.6007 21.9587 97.1707 21.9287 96.8107 21.9287C95.5307 21.9287 94.5007 22.2387 93.7207 22.8587C92.9607 23.4587 92.4507 24.4187 92.1907 25.7387L90.6307 33.4187H84.9307L88.1707 17.1587H93.5707L93.2107 18.9587ZM118.456 17.1587L115.216 33.4187H109.816L110.146 31.8887C108.846 33.0887 107.276 33.6887 105.436 33.6887C104.236 33.6887 103.106 33.3987 102.046 32.8187C101.006 32.2187 100.166 31.3587 99.5264 30.2387C98.8864 29.1187 98.5664 27.7987 98.5664 26.2787C98.5664 24.5187 98.9564 22.9287 99.7364 21.5087C100.536 20.0687 101.606 18.9387 102.946 18.1187C104.306 17.2987 105.786 16.8887 107.386 16.8887C109.746 16.8887 111.406 17.6287 112.366 19.1087L112.756 17.1587H118.456ZM107.416 29.0987C108.556 29.0987 109.486 28.6787 110.206 27.8387C110.926 26.9987 111.286 25.9087 111.286 24.5687C111.286 23.6087 111.006 22.8487 110.446 22.2887C109.906 21.7287 109.156 21.4487 108.196 21.4487C107.056 21.4487 106.126 21.8687 105.406 22.7087C104.686 23.5487 104.326 24.6487 104.326 26.0087C104.326 26.9687 104.596 27.7287 105.136 28.2887C105.696 28.8287 106.456 29.0987 107.416 29.0987ZM123.326 11.1587H129.026L124.586 33.4187H118.886L123.326 11.1587ZM131.53 17.1587H137.2L133.96 33.4187H128.29L131.53 17.1587ZM135.16 15.3587C134.18 15.3587 133.39 15.0887 132.79 14.5487C132.19 14.0087 131.89 13.3387 131.89 12.5387C131.89 11.5987 132.22 10.8287 132.88 10.2287C133.56 9.6087 134.45 9.2987 135.55 9.2987C136.55 9.2987 137.35 9.5587 137.95 10.0787C138.55 10.5787 138.85 11.2287 138.85 12.0287C138.85 13.0087 138.51 13.8087 137.83 14.4287C137.15 15.0487 136.26 15.3587 135.16 15.3587Z" fill="#001138"/>
<path d="M76.452 35.273L74.064 41.585H73.26L71.268 36.413L69.276 41.585H68.472L66.096 35.273H66.912L68.892 40.637L70.92 35.273H71.652L73.668 40.637L75.672 35.273H76.452ZM83.0551 38.693H77.7751C77.8231 39.349 78.0751 39.881 78.5311 40.289C78.9871 40.689 79.5631 40.889 80.2591 40.889C80.6511 40.889 81.0111 40.821 81.3391 40.685C81.6671 40.541 81.9511 40.333 82.1911 40.061L82.6711 40.613C82.3911 40.949 82.0391 41.205 81.6151 41.381C81.1991 41.557 80.7391 41.645 80.2351 41.645C79.5871 41.645 79.0111 41.509 78.5071 41.237C78.0111 40.957 77.6231 40.573 77.3431 40.085C77.0631 39.597 76.9231 39.045 76.9231 38.429C76.9231 37.813 77.0551 37.261 77.3191 36.773C77.5911 36.285 77.9591 35.905 78.4231 35.633C78.8951 35.361 79.4231 35.225 80.0071 35.225C80.5911 35.225 81.1151 35.361 81.5791 35.633C82.0431 35.905 82.4071 36.285 82.6711 36.773C82.9351 37.253 83.0671 37.805 83.0671 38.429L83.0551 38.693ZM80.0071 35.957C79.3991 35.957 78.8871 36.153 78.4711 36.545C78.0631 36.929 77.8311 37.433 77.7751 38.057H82.2511C82.1951 37.433 81.9591 36.929 81.5431 36.545C81.1351 36.153 80.6231 35.957 80.0071 35.957ZM86.8335 35.225C87.6575 35.225 88.2895 35.433 88.7295 35.849C89.1695 36.257 89.3895 36.865 89.3895 37.673V41.585H88.5735V40.601C88.3815 40.929 88.0975 41.185 87.7215 41.369C87.3535 41.553 86.9135 41.645 86.4015 41.645C85.6975 41.645 85.1375 41.477 84.7215 41.141C84.3055 40.805 84.0975 40.361 84.0975 39.809C84.0975 39.273 84.2895 38.841 84.6735 38.513C85.0655 38.185 85.6855 38.021 86.5335 38.021H88.5375V37.637C88.5375 37.093 88.3855 36.681 88.0815 36.401C87.7775 36.113 87.3335 35.969 86.7495 35.969C86.3495 35.969 85.9655 36.037 85.5975 36.173C85.2295 36.301 84.9135 36.481 84.6495 36.713L84.2655 36.077C84.5855 35.805 84.9695 35.597 85.4175 35.453C85.8655 35.301 86.3375 35.225 86.8335 35.225ZM86.5335 40.973C87.0135 40.973 87.4255 40.865 87.7695 40.649C88.1135 40.425 88.3695 40.105 88.5375 39.689V38.657H86.5575C85.4775 38.657 84.9375 39.033 84.9375 39.785C84.9375 40.153 85.0775 40.445 85.3575 40.661C85.6375 40.869 86.0295 40.973 86.5335 40.973ZM92.5196 36.509C92.7196 36.085 93.0156 35.765 93.4076 35.549C93.8076 35.333 94.2996 35.225 94.8836 35.225V36.053L94.6796 36.041C94.0156 36.041 93.4956 36.245 93.1196 36.653C92.7436 37.061 92.5556 37.633 92.5556 38.369V41.585H91.7036V35.273H92.5196V36.509ZM101.353 41.645C100.841 41.645 100.349 41.573 99.8767 41.429C99.4127 41.277 99.0487 41.089 98.7847 40.865L99.1687 40.193C99.4327 40.401 99.7647 40.573 100.165 40.709C100.565 40.837 100.981 40.901 101.413 40.901C101.989 40.901 102.413 40.813 102.685 40.637C102.965 40.453 103.105 40.197 103.105 39.869C103.105 39.637 103.029 39.457 102.877 39.329C102.725 39.193 102.533 39.093 102.301 39.029C102.069 38.957 101.761 38.889 101.377 38.825C100.865 38.729 100.453 38.633 100.141 38.537C99.8287 38.433 99.5607 38.261 99.3367 38.021C99.1207 37.781 99.0127 37.449 99.0127 37.025C99.0127 36.497 99.2327 36.065 99.6727 35.729C100.113 35.393 100.725 35.225 101.509 35.225C101.917 35.225 102.325 35.281 102.733 35.393C103.141 35.497 103.477 35.637 103.741 35.813L103.369 36.497C102.849 36.137 102.229 35.957 101.509 35.957C100.965 35.957 100.553 36.053 100.273 36.245C100.001 36.437 99.8647 36.689 99.8647 37.001C99.8647 37.241 99.9407 37.433 100.093 37.577C100.253 37.721 100.449 37.829 100.681 37.901C100.913 37.965 101.233 38.033 101.641 38.105C102.145 38.201 102.549 38.297 102.853 38.393C103.157 38.489 103.417 38.653 103.633 38.885C103.849 39.117 103.957 39.437 103.957 39.845C103.957 40.397 103.725 40.837 103.261 41.165C102.805 41.485 102.169 41.645 101.353 41.645ZM108.856 41.201C108.696 41.345 108.496 41.457 108.256 41.537C108.024 41.609 107.78 41.645 107.524 41.645C106.932 41.645 106.476 41.485 106.156 41.165C105.836 40.845 105.676 40.393 105.676 39.809V35.993H104.548V35.273H105.676V33.893H106.528V35.273H108.448V35.993H106.528V39.761C106.528 40.137 106.62 40.425 106.804 40.625C106.996 40.817 107.268 40.913 107.62 40.913C107.796 40.913 107.964 40.885 108.124 40.829C108.292 40.773 108.436 40.693 108.556 40.589L108.856 41.201ZM112.764 41.645C112.156 41.645 111.608 41.509 111.12 41.237C110.632 40.957 110.248 40.573 109.968 40.085C109.688 39.597 109.548 39.045 109.548 38.429C109.548 37.813 109.688 37.261 109.968 36.773C110.248 36.285 110.632 35.905 111.12 35.633C111.608 35.361 112.156 35.225 112.764 35.225C113.372 35.225 113.92 35.361 114.408 35.633C114.896 35.905 115.276 36.285 115.548 36.773C115.828 37.261 115.968 37.813 115.968 38.429C115.968 39.045 115.828 39.597 115.548 40.085C115.276 40.573 114.896 40.957 114.408 41.237C113.92 41.509 113.372 41.645 112.764 41.645ZM112.764 40.889C113.212 40.889 113.612 40.789 113.964 40.589C114.324 40.381 114.604 40.089 114.804 39.713C115.004 39.337 115.104 38.909 115.104 38.429C115.104 37.949 115.004 37.521 114.804 37.145C114.604 36.769 114.324 36.481 113.964 36.281C113.612 36.073 113.212 35.969 112.764 35.969C112.316 35.969 111.912 36.073 111.552 36.281C111.2 36.481 110.92 36.769 110.712 37.145C110.512 37.521 110.412 37.949 110.412 38.429C110.412 38.909 110.512 39.337 110.712 39.713C110.92 40.089 111.2 40.381 111.552 40.589C111.912 40.789 112.316 40.889 112.764 40.889ZM118.524 36.509C118.724 36.085 119.02 35.765 119.412 35.549C119.812 35.333 120.304 35.225 120.888 35.225V36.053L120.684 36.041C120.02 36.041 119.5 36.245 119.124 36.653C118.748 37.061 118.56 37.633 118.56 38.369V41.585H117.708V35.273H118.524V36.509ZM127.868 38.693H122.588C122.636 39.349 122.888 39.881 123.344 40.289C123.8 40.689 124.376 40.889 125.072 40.889C125.464 40.889 125.824 40.821 126.152 40.685C126.48 40.541 126.764 40.333 127.004 40.061L127.484 40.613C127.204 40.949 126.852 41.205 126.428 41.381C126.012 41.557 125.552 41.645 125.048 41.645C124.4 41.645 123.824 41.509 123.32 41.237C122.824 40.957 122.436 40.573 122.156 40.085C121.876 39.597 121.736 39.045 121.736 38.429C121.736 37.813 121.868 37.261 122.132 36.773C122.404 36.285 122.772 35.905 123.236 35.633C123.708 35.361 124.236 35.225 124.82 35.225C125.404 35.225 125.928 35.361 126.392 35.633C126.856 35.905 127.22 36.285 127.484 36.773C127.748 37.253 127.88 37.805 127.88 38.429L127.868 38.693ZM124.82 35.957C124.212 35.957 123.7 36.153 123.284 36.545C122.876 36.929 122.644 37.433 122.588 38.057H127.064C127.008 37.433 126.772 36.929 126.356 36.545C125.948 36.153 125.436 35.957 124.82 35.957Z" fill="#767676"/>
<g filter="url(#filter0_d)">
<path d="M43.6585 11.3051L41.8025 14.4364L36.1212 12.5543L25.9492 29.7163L21.7297 28.3185L31.9017 11.1565L26.2203 9.27441L28.0762 6.1431L43.6585 11.3051Z" fill="#FC9D9D"/>
</g>
<g clip-path="url(#clip0)">
<path d="M57.1911 10.1116C55.9471 9.90648 54.7182 10.4938 54.4441 11.423L50.4552 24.942C49.9855 26.5339 48.1444 27.6457 45.9779 27.6457C44.705 27.6457 43.6732 28.4171 43.6732 29.3687C43.6732 30.3203 44.705 31.0917 45.9779 31.0917C48.0707 31.0917 50.1186 30.5512 51.7445 29.5697C53.365 28.5913 54.5058 27.2115 54.9564 25.6842L58.9452 12.1652C59.2195 11.236 58.4342 10.3165 57.1911 10.1116Z" fill="#001E67"/>
<path d="M45.9782 34.6246H15.787C14.5162 34.6246 13.4823 33.8517 13.4823 32.9016C13.4823 32.8871 13.4799 32.873 13.4794 32.8586C13.4799 32.8441 13.4823 32.83 13.4823 32.8155C13.4823 31.8654 14.5162 31.0925 15.787 31.0925H34.4548C35.7277 31.0925 36.7595 30.3211 36.7595 29.3695C36.7595 28.4179 35.7277 27.6465 34.4548 27.6465H17.5087L14.7789 8.89762L14.7728 8.85988C13.9546 4.19752 8.59441 0.68165 2.30469 0.68165C1.03181 0.68165 0 1.45304 0 2.40465C0 3.35627 1.03181 4.12766 2.30469 4.12766C6.28096 4.12766 9.67081 6.34594 10.1995 9.29038L12.9392 28.1071C10.5438 28.9201 8.87293 30.724 8.87293 32.8154C8.87293 32.83 8.87535 32.844 8.87581 32.8585C8.87535 32.8729 8.87293 32.887 8.87293 32.9015C8.87293 35.7517 11.9746 38.0706 15.787 38.0706H16.727C16.4923 38.5846 16.3632 39.1348 16.3632 39.7074C16.3632 42.5101 19.4132 44.7903 23.162 44.7903C26.9108 44.7903 29.9608 42.5101 29.9608 39.7074C29.9608 39.1348 29.8316 38.5846 29.597 38.0706H39.5432C39.3086 38.5846 39.1795 39.1348 39.1795 39.7074C39.1795 42.5101 42.2295 44.7903 45.9783 44.7903C49.7271 44.7903 52.7771 42.5101 52.7771 39.7074C52.7769 36.9047 49.727 34.6245 45.9782 34.6246ZM23.1619 41.3442C21.9546 41.3442 20.9724 40.6099 20.9724 39.7073C20.9724 38.8047 21.9546 38.0705 23.1619 38.0705C24.3692 38.0705 25.3513 38.8047 25.3513 39.7073C25.3513 40.6099 24.3692 41.3442 23.1619 41.3442ZM45.9782 41.3442C44.7709 41.3442 43.7887 40.6099 43.7887 39.7073C43.7887 38.8047 44.7709 38.0705 45.9782 38.0705C47.1855 38.0705 48.1676 38.8047 48.1676 39.7073C48.1676 40.6099 47.1855 41.3442 45.9782 41.3442Z" fill="#001E67"/>
</g>
<defs>
<filter id="filter0_d" x="19.7297" y="4.1431" width="29.9288" height="31.5732" filterUnits="userSpaceOnUse" color-interpolation-filters="sRGB">
<feFlood flood-opacity="0" result="BackgroundImageFix"/>
<feColorMatrix in="SourceAlpha" type="matrix" values="0 0 0 0 0 0 0 0 0 0 0 0 0 0 0 0 0 0 127 0" result="hardAlpha"/>
<feOffset dx="2" dy="2"/>
<feGaussianBlur stdDeviation="2"/>
<feColorMatrix type="matrix" values="0 0 0 0 0.8875 0 0 0 0 0.547292 0 0 0 0 0.547292 0 0 0 0.57 0"/>
<feBlend mode="normal" in2="BackgroundImageFix" result="effect1_dropShadow"/>
<feBlend mode="normal" in="SourceGraphic" in2="effect1_dropShadow" result="shape"/>
</filter>
<clipPath id="clip0">
<rect width="59" height="44.1089" fill="white" transform="translate(0 0.680664)"/>
</clipPath>
</defs>
</symbol>



<symbol  viewBox="0 0 40 40" id="arrow-left">
<path d="M0.0633559 19.6912C-0.0654703 20.0028 0.00624601 20.3614 0.244996 20.5996L15.245 35.5996C15.576 35.9193 16.1036 35.9101 16.4234 35.5791C16.7352 35.2561 16.7352 34.7442 16.4234 34.4213L2.84499 20.8429L39.1666 20.8429C39.6269 20.8428 40 20.4697 40 20.0095C40 19.5492 39.6269 19.1761 39.1666 19.1761L2.845 19.1761L16.4216 5.59948C16.7527 5.27972 16.7619 4.75222 16.4421 4.42112C16.1223 4.09011 15.5948 4.08097 15.2638 4.40065C15.2568 4.40737 15.25 4.41417 15.2433 4.42112L0.24328 19.4211C0.16625 19.4985 0.105077 19.5903 0.0633559 19.6912Z" fill="#2196F3"/>
<path d="M15.8334 4.17637C16.2937 4.17551 16.6674 4.54801 16.6683 5.00824C16.6687 5.23012 16.5805 5.44301 16.4234 5.59973L2.01171 20.0096L16.4234 34.4196C16.7432 34.7507 16.734 35.2782 16.403 35.598C16.08 35.9099 15.568 35.9099 15.2451 35.598L0.245147 20.598C-0.0801645 20.2726 -0.0801645 19.7451 0.245147 19.4196L15.2451 4.41965C15.4012 4.26387 15.6128 4.17637 15.8334 4.17637Z" fill="#B1B1B1"/>
<path d="M0.833355 19.1759L39.1666 19.1759C39.6269 19.1759 40 19.5489 40 20.0092C40 20.4694 39.6269 20.8425 39.1666 20.8425L0.833275 20.8425C0.373043 20.8425 -8.0076e-05 20.4694 -8.00358e-05 20.0092C-3.70161e-06 19.5489 0.373119 19.1759 0.833355 19.1759Z" fill="#B1B1B1"/>
</symbol>


<symbol viewBox="0 0 40 40" id="arrow-right">
<path d="M39.9366 20.3088C40.0655 19.9972 39.9938 19.6386 39.755 19.4004L24.755 4.40044C24.424 4.08067 23.8964 4.08989 23.5766 4.42091C23.2648 4.74388 23.2648 5.25583 23.5766 5.57872L37.155 19.1571H0.833359C0.373125 19.1572 0 19.5303 0 19.9905C0 20.4508 0.373125 20.8239 0.833359 20.8239H37.155L23.5784 34.4005C23.2473 34.7203 23.2381 35.2478 23.5579 35.5789C23.8777 35.9099 24.4052 35.919 24.7362 35.5993C24.7432 35.5926 24.75 35.5858 24.7567 35.5789L39.7567 20.5789C39.8337 20.5015 39.8949 20.4097 39.9366 20.3088Z" fill="#2196F3"/>
<path d="M24.1666 35.8236C23.7063 35.8245 23.3326 35.452 23.3317 34.9918C23.3313 34.7699 23.4195 34.557 23.5766 34.4003L37.9883 19.9904L23.5766 5.58036C23.2568 5.24934 23.266 4.72176 23.597 4.402C23.92 4.09012 24.432 4.09012 24.7549 4.402L39.7549 19.402C40.0802 19.7274 40.0802 20.2549 39.7549 20.5804L24.7549 35.5804C24.5988 35.7361 24.3872 35.8236 24.1666 35.8236Z" fill="black"/>
<path d="M39.1666 20.824H0.833359C0.373125 20.824 0 20.451 0 19.9908C0 19.5305 0.373125 19.1574 0.833359 19.1574H39.1667C39.627 19.1574 40.0001 19.5305 40.0001 19.9908C40 20.451 39.6269 20.824 39.1666 20.824Z" fill="black"/>
</symbol>

<symbol viewBox="0 0 16 15" id="star-white">
<path d="M14.4375 5.42578L10.4453 4.85156L8.66797 1.24219C8.55859 1.02344 8.39453 0.877604 8.17578 0.804688C7.97526 0.731771 7.76562 0.731771 7.54688 0.804688C7.34635 0.877604 7.19141 1.02344 7.08203 1.24219L5.30469 4.85156L1.3125 5.42578C1.07552 5.46224 0.884115 5.57161 0.738281 5.75391C0.610677 5.9362 0.546875 6.13672 0.546875 6.35547C0.565104 6.57422 0.65625 6.76562 0.820312 6.92969L3.71875 9.74609L3.03516 13.7383C2.9987 13.957 3.03516 14.1576 3.14453 14.3398C3.27214 14.5404 3.44531 14.668 3.66406 14.7227C3.88281 14.7773 4.09245 14.75 4.29297 14.6406L7.875 12.7812L11.457 14.6406C11.6576 14.75 11.8672 14.7773 12.0859 14.7227C12.3047 14.668 12.4688 14.5404 12.5781 14.3398C12.7057 14.1576 12.7513 13.957 12.7148 13.7383L12.0312 9.74609L14.9297 6.92969C15.0938 6.76562 15.1758 6.57422 15.1758 6.35547C15.194 6.13672 15.1302 5.9362 14.9844 5.75391C14.8568 5.57161 14.6745 5.46224 14.4375 5.42578ZM10.6367 9.28125L11.2656 13.082L7.875 11.2773L4.48438 13.082L5.11328 9.28125L2.37891 6.60156L6.17969 6.05469L7.875 2.60938L9.57031 6.05469L13.3711 6.60156L10.6367 9.28125Z" fill="#FFBD69"/>
</symbol>

<symbol viewBox="0 0 16 15" id="star-yellow">
<path d="M7.08203 1.24219L5.30469 4.87891L1.28516 5.45312C0.574219 5.5625 0.300781 6.4375 0.820312 6.95703L3.69141 9.77344L3.00781 13.7383C2.89844 14.4492 3.66406 14.9961 4.29297 14.668L7.875 12.7812L11.4297 14.668C12.0586 14.9961 12.8242 14.4492 12.7148 13.7383L12.0312 9.77344L14.9023 6.95703C15.4219 6.4375 15.1484 5.5625 14.4375 5.45312L10.4453 4.87891L8.64062 1.24219C8.33984 0.613281 7.41016 0.585938 7.08203 1.24219Z" fill="#FFBD69"/>
</symbol>


<symbol viewBox="0 0 38 38" id="bag">
<rect width="38" height="38" rx="19" fill="#FC9D9D"/>
<g clip-path="url(#clip0)">
<path d="M27.674 28.3426L26.1539 13.8671C26.122 13.564 25.8666 13.3339 25.5619 13.3339H22.7048V12.6825C22.7048 10.6521 21.0528 9 19.0223 9C16.9916 9 15.3396 10.6521 15.3396 12.6825V13.3339H12.4825C12.1778 13.3339 11.9224 13.564 11.8905 13.8671L10.3704 28.3426C10.3529 28.5103 10.4073 28.6777 10.5201 28.8031C10.633 28.9284 10.7938 29 10.9624 29H27.0818C27.2506 29 27.4114 28.9284 27.5242 28.8031C27.6372 28.6777 27.6915 28.5103 27.674 28.3426ZM16.5301 12.6825C16.5301 11.3085 17.6481 10.1905 19.0223 10.1905C20.3963 10.1905 21.5143 11.3085 21.5143 12.6825V13.3339H16.5301V12.6825ZM11.6235 27.8095L13.0186 14.5244H15.3396V15.8362C15.3396 16.1649 15.6061 16.4315 15.9348 16.4315C16.2635 16.4315 16.5301 16.1649 16.5301 15.8362V14.5244H21.5143V15.8362C21.5143 16.1649 21.7809 16.4315 22.1096 16.4315C22.4383 16.4315 22.7048 16.1649 22.7048 15.8362V14.5244H25.0258L26.4209 27.8095H11.6235Z" fill="white"/>
</g>
<defs>
<clipPath id="clip0">
<rect width="20" height="20" fill="white" transform="translate(9 9)"/>
</clipPath>
</defs>
</symbol>

<symbol  viewBox="0 0 50 50" id="visa">

<path d="M50 39.2852C50 40.9176 48.6768 42.2409 47.0444 42.2409H2.95557C1.32324 42.241 0 40.9176 0 39.2852V10.7145C0 9.08203 1.32324 7.75879 2.95557 7.75879H47.0444C48.6769 7.75879 50 9.08213 50 10.7145V39.2852Z" fill="white"/>
<path d="M11.0977 25.1983L9.92368 19.5664C9.723 18.7897 9.13901 18.5586 8.40933 18.5281H3.02671L2.97876 18.7854C7.17104 19.8017 9.94497 22.2535 11.0977 25.1983Z" fill="#F79F1A"/>
<path d="M23.5697 18.6414H20.0919L17.9198 31.3881H21.3919L23.5697 18.6414Z" fill="#059BBF"/>
<path d="M13.2173 31.3754L18.687 18.6501H15.0063L11.6036 27.3443L11.2405 26.0316C10.5735 24.4524 8.66721 22.1794 6.42932 20.7486L9.53967 31.3797L13.2173 31.3754Z" fill="#059BBF"/>
<path d="M33.489 27.2215C33.5019 25.7744 32.5727 24.6706 30.5704 23.7588C29.3535 23.17 28.6118 22.7773 28.6207 22.1797C28.6207 21.6518 29.2488 21.0847 30.6097 21.0847C31.7485 21.0672 32.5684 21.3159 33.2097 21.5733L33.524 21.7173L33.9953 18.9559C33.3059 18.6984 32.2283 18.4236 30.8805 18.4236C27.4472 18.4236 25.0305 20.1512 25.0086 22.6291C24.9868 24.4614 26.7364 25.4822 28.0537 26.0928C29.4059 26.7153 29.8596 27.1136 29.8509 27.672C29.8422 28.5258 28.7733 28.9152 27.7744 28.9152C26.3828 28.9152 25.6455 28.7233 24.502 28.2469L24.0577 28.0428L23.5696 30.8992C24.3804 31.2536 25.8809 31.5633 27.4385 31.5762C31.0896 31.5762 33.4629 29.8706 33.489 27.2215Z" fill="#059BBF"/>
<path d="M37.6207 29.4778C38.0176 29.4778 41.5642 29.4822 42.0705 29.4822C42.1751 29.9261 42.4936 31.3929 42.4936 31.3929H45.7173L42.9036 18.6548H40.2208C39.3875 18.6548 38.7682 18.8816 38.4016 19.7104L33.241 31.3929H36.8925C36.8922 31.3929 37.4854 29.8227 37.6207 29.4778ZM40.0024 23.305C39.9852 23.3398 40.2905 22.5678 40.465 22.0879L40.7004 23.1871C40.7004 23.1871 41.3637 26.2322 41.5032 26.8692H38.6196C38.9076 26.1363 40.0024 23.305 40.0024 23.305Z" fill="#059BBF"/>
<path d="M47.0444 7.75879H2.95557C1.32324 7.75879 0 9.08203 0 10.7145V13.782H50V10.7145C50 9.08203 48.6769 7.75879 47.0444 7.75879Z" fill="#059BBF"/>
<path d="M47.0444 42.241H2.95557C1.32324 42.241 0 40.9177 0 39.2854V36.2178H50V39.2854C50 40.9177 48.6769 42.241 47.0444 42.241Z" fill="#F79F1A"/>
<path opacity="0.15" d="M2.10127 39.2852V10.7145C2.10127 9.08203 3.42461 7.75879 5.05703 7.75879H2.95547C1.32324 7.75879 0 9.08203 0 10.7145V39.2853C0 40.9177 1.32324 42.241 2.95557 42.241H5.05713C3.42471 42.241 2.10127 40.9176 2.10127 39.2852Z" fill="#202121"/>
</symbol>

<symbol  viewBox="0 0 50 50" id="paypal">
<path d="M50 39.2853C50 40.9177 48.6768 42.241 47.0444 42.241H2.95557C1.32324 42.241 0 40.9176 0 39.2853V10.7145C0 9.08203 1.32324 7.75879 2.95557 7.75879H47.0444C48.6769 7.75879 50 9.08213 50 10.7145V39.2853Z" fill="#92DBEF"/>
<path opacity="0.15" d="M2.10127 39.2853V10.7145C2.10127 9.08203 3.42471 7.75879 5.05703 7.75879H2.95547C1.32324 7.75879 0 9.08203 0 10.7145V39.2853C0 40.9177 1.32324 42.241 2.95557 42.241H5.05713C3.4248 42.241 2.10127 40.9176 2.10127 39.2853Z" fill="#202121"/>
<path d="M32.464 14.4988C31.3683 13.2464 29.3334 12.6206 26.5162 12.6206H18.6898C18.2199 12.6206 17.7507 13.0905 17.5941 13.5594L14.4635 34.064C14.4635 34.5342 14.7767 34.8466 15.0892 34.8466H19.9414L21.1937 27.1772V27.4903C21.3505 27.0203 21.8196 26.5514 22.2896 26.5514H24.6377C29.1767 26.5514 32.6195 24.6731 33.7154 19.5072V19.0377C33.5589 19.0377 33.5589 19.0377 33.7154 19.0377C33.8721 17.0034 33.559 15.751 32.464 14.4988Z" fill="#263B80"/>
<path d="M33.7155 19.5079V19.0384C33.7166 19.0229 33.7173 19.0084 33.7183 18.993C33.44 18.7995 33.1792 18.6646 32.9799 18.5771C32.0295 18.1844 31.0576 18.1104 30.609 18.0991L30.6067 18.0972H28.324C28.324 18.0972 28.326 18.0983 28.327 18.099H23.5389C22.7248 18.1286 22.5004 18.785 22.4416 19.0705L21.1938 27.178V27.3704V27.491C21.3507 27.021 21.8197 26.5521 22.2897 26.5521H24.6379C29.1769 26.5521 32.6196 24.6737 33.7155 19.5079Z" fill="#232C65"/>
<path d="M35.2539 20.9775C34.9001 20.0016 34.2743 19.3781 33.719 18.9919C33.7179 19.0074 33.7172 19.0218 33.7163 19.0374V19.5069C32.6204 24.6727 29.1776 26.551 24.6386 26.551H22.2905C21.8205 26.551 21.3514 27.0199 21.1946 27.49V27.3693C21.1767 27.4093 21.1602 27.4497 21.1467 27.49L20.2624 32.8852L19.9422 34.8463H19.9411L19.5818 37.0379C19.5818 37.3508 19.7385 37.6632 20.2076 37.6632H24.1092C24.8942 37.6632 25.1408 37.0526 25.2166 36.7236L25.2497 36.5192V36.5191L25.9989 31.8722C25.9989 31.8722 26.0965 30.7766 27.1654 30.7766H27.5647C31.4778 30.7766 34.6083 29.2117 35.3908 24.5162C35.6084 23.2071 35.5976 21.9753 35.2539 20.9775Z" fill="#139AD6"/>
</symbol>

<symbol  viewBox="0 0 50 50" id="express">
<path d="M50 39.2852C50 40.9176 48.6768 42.2409 47.0444 42.2409H2.95557C1.32324 42.241 0 40.9176 0 39.2852V10.7145C0 9.08213 1.32324 7.75879 2.95557 7.75879H47.0444C48.6769 7.75879 50 9.08213 50 10.7145V39.2852Z" fill="#306FC5"/>
<path opacity="0.15" d="M2.10127 39.2852V10.7145C2.10127 9.08213 3.42471 7.75879 5.05703 7.75879H2.95547C1.32324 7.75879 0 9.08203 0 10.7145V39.2853C0 40.9177 1.32324 42.241 2.95557 42.241H5.05713C3.4248 42.241 2.10127 40.9176 2.10127 39.2852Z" fill="#202121"/>
<path d="M7.2843 21.5571H8.77825L8.03147 19.6558L7.2843 21.5571Z" fill="white"/>
<path d="M15.2289 27.9397V28.8226H17.7415V29.7735H15.2289V30.7923H18.013L19.3031 29.366L18.0809 27.9397H15.2289Z" fill="white"/>
<path d="M34.8535 19.6558L34.0386 21.5571H35.6006L34.8535 19.6558Z" fill="white"/>
<path d="M22.4954 31.3351V27.4646L20.7297 29.3661L22.4954 31.3351Z" fill="white"/>
<path d="M25.8223 28.5511C25.7544 28.1437 25.4825 27.9397 25.0749 27.9397H23.6492V29.162H25.1432C25.5505 29.1621 25.8223 28.9584 25.8223 28.5511Z" fill="white"/>
<path d="M30.5751 29.0262C30.7109 28.9582 30.7791 28.7542 30.7791 28.5509C30.8471 28.2795 30.7109 28.1435 30.5751 28.0755C30.4396 28.0076 30.2356 28.0076 30.0322 28.0076H28.6738V29.0942H30.0321C30.2355 29.0942 30.4395 29.0942 30.5751 29.0262Z" fill="white"/>
<path d="M40.3532 17.8901V18.705L39.946 17.8901H36.7548V18.705L36.3472 17.8901H32.0013C31.2544 17.8901 30.643 18.0261 30.1 18.2977V17.8901H27.0445V17.9581V18.2977C26.705 18.0262 26.2976 17.8901 25.7543 17.8901H14.8217L14.0745 19.5878L13.3277 17.8901H10.8833H9.8646V18.705L9.52505 17.8901H9.45708H6.53726L5.17896 21.0815L3.61733 24.5446L3.58862 24.6127H3.61733H7.08052H7.12388L7.14849 24.5446L7.5561 23.5263H8.43882L8.84624 24.6127H12.7843V24.5446V23.7979L13.1241 24.6126H15.0931L15.4325 23.7979V24.5446V24.6127H16.9943H24.8034H24.8713V22.8471H25.0075C25.1431 22.8471 25.1431 22.8471 25.1431 23.0509V24.5447H30.0323V24.1373C30.4397 24.3413 31.0504 24.5447 31.8654 24.5447H33.9028L34.3102 23.4585H35.2606L35.668 24.5447H39.6063V23.8658V23.5264L40.2177 24.5447H40.3532H40.4213H43.4091V17.8901H40.3534H40.3532ZM17.334 23.5943H16.6548H16.2475V23.1872V19.8595L16.1795 20.0152V20.0134L14.5999 23.5943H14.5499H14.1867H13.5991L11.9695 19.8595V23.5943H9.66089L9.1856 22.5758H6.87661L6.40122 23.5943H5.20757L7.21636 18.8409H8.91382L10.8151 23.3904V18.8409H11.2224H12.6141L12.6461 18.909H12.6485L13.5052 20.7736L14.1205 22.1707L14.1422 22.1003L15.5002 18.841H17.3339V23.5943H17.334ZM22.0196 19.8595H19.3712V20.7422H21.9516V21.6928H19.3712V22.6438H22.0196V23.662H18.2169V18.841H22.0196V19.8595ZM26.8628 21.6105C26.8646 21.612 26.8668 21.6131 26.869 21.6146C26.8947 21.6417 26.9167 21.6689 26.9354 21.695C27.0655 21.8655 27.1707 22.1191 27.1759 22.491C27.1763 22.4975 27.1766 22.5038 27.177 22.5103C27.177 22.514 27.1777 22.5172 27.1777 22.521C27.1777 22.5231 27.1775 22.5248 27.1775 22.5269C27.1791 22.5643 27.18 22.6024 27.18 22.6438V23.5944H26.1617V23.051C26.1617 22.7794 26.1617 22.3719 25.9577 22.1003C25.8935 22.0361 25.8286 21.9938 25.7579 21.9638C25.6561 21.8979 25.4632 21.8968 25.1431 21.8968H23.9205V23.5944H22.7664V18.841H25.3469C25.9577 18.841 26.3653 18.841 26.7049 19.0447C27.0376 19.2445 27.2386 19.5759 27.2462 20.1006C27.2305 20.8232 26.7666 21.2197 26.4332 21.3534C26.4332 21.3534 26.6597 21.399 26.8628 21.6105ZM29.1495 23.5943H27.995V18.8409H29.1495V23.5943ZM42.3909 23.5943H40.8967L38.7239 19.9952V22.983L38.7167 22.976V23.5973H37.5696V23.5944H36.4151L36.0077 22.5759H33.6308L33.2234 23.6621H31.9333C31.3904 23.6621 30.7109 23.5265 30.3037 23.119C29.8962 22.7116 29.6927 22.1684 29.6927 21.2857C29.6927 20.6067 29.8284 19.9272 30.3037 19.3842C30.6429 18.9765 31.2543 18.841 32.0011 18.841H33.0878V19.8595H32.0011C31.5937 19.8595 31.3904 19.9271 31.1182 20.1313C30.9149 20.3349 30.779 20.7422 30.779 21.2175C30.779 21.7608 30.8469 22.1003 31.1182 22.3719C31.3224 22.5759 31.5938 22.6438 31.9333 22.6438H32.4085L33.9702 18.9092H34.6496H35.6679L37.5695 23.4587V23.2267V21.693V21.5573V18.9093H39.2669L41.2358 22.2364V18.9093H42.3907V23.5945H42.3909V23.5943Z" fill="white"/>
<path d="M25.8944 20.8206C25.9142 20.7994 25.9322 20.7754 25.9474 20.7479C26.0089 20.6505 26.0794 20.4751 26.0415 20.2357C26.0399 20.2138 26.0359 20.1935 26.0312 20.1738C26.0299 20.1684 26.0301 20.1636 26.0287 20.1581L26.028 20.1582C25.9942 20.0419 25.908 19.9704 25.8219 19.9271C25.6858 19.8594 25.4821 19.8594 25.2785 19.8594H23.9202V20.946H25.2785C25.4821 20.946 25.6859 20.946 25.8219 20.8779C25.8423 20.8676 25.8605 20.8535 25.878 20.8376L25.8782 20.8385C25.8783 20.8384 25.8852 20.8312 25.8944 20.8206Z" fill="white"/>
<path d="M46.3967 30.3845C46.3967 29.9092 46.2611 29.4337 46.0575 29.0942V26.0387H46.0543V25.8347C46.0543 25.8347 43.2082 25.8347 42.7845 25.8347C42.3611 25.8347 41.8472 26.242 41.8472 26.242V25.8347H38.7238C38.2482 25.8347 37.6375 25.9706 37.3655 26.242V25.8347H31.7975V26.0387V26.2419C31.3904 25.9026 30.6428 25.8346 30.3036 25.8346H26.6367V26.0386V26.2418C26.2972 25.9025 25.482 25.8345 25.0744 25.8345H21.0007L20.0499 26.8531L19.167 25.8345H18.8828H18.4202H13.0559V26.0385V26.5749V32.6932H19.0315L20.0133 31.711L20.8644 32.6932H20.9326H24.3757H24.5318H24.5998H24.6673V32.0142V31.1314H25.0071C25.482 31.1314 26.0934 31.1314 26.5687 30.9274V32.6249V32.761H29.6245V32.6249V30.9954H29.7599C29.9639 30.9954 29.9639 30.9954 29.9639 31.1991V32.6249V32.761H39.1986C39.8102 32.761 40.4209 32.6249 40.7604 32.3533V32.6249V32.761H43.6805C44.2913 32.761 44.9029 32.6932 45.3103 32.4214C45.9355 32.0463 46.3295 31.3823 46.3881 30.5904C46.3909 30.567 46.3943 30.5436 46.3964 30.52L46.3924 30.5162C46.395 30.4723 46.3967 30.4288 46.3967 30.3845ZM25.0072 29.9771H23.6488V30.1804V30.588V30.9955V31.7425H21.4168L20.1178 30.2484L20.1133 30.2534L20.0499 30.1804L18.556 31.7425H14.2102V26.9893H18.624L19.8298 28.3101L20.0833 28.5866L20.1177 28.551L21.5439 26.9894H25.1427C25.8412 26.9894 26.6233 27.1617 26.9197 27.8724C26.9553 28.0131 26.976 28.1695 26.976 28.3473C26.976 29.7053 26.0253 29.9771 25.0072 29.9771ZM31.7975 29.9091C31.9332 30.1123 32.0011 30.3844 32.0011 30.792V31.7424H30.8469V31.1314C30.8469 30.8594 30.8469 30.3844 30.6429 30.1804C30.5075 29.9771 30.2355 29.9771 29.8284 29.9771H28.6062V31.7425H27.4519V26.9213H30.0321C30.575 26.9213 31.0502 26.9213 31.3904 27.1248C31.7296 27.3287 32.0011 27.6683 32.0011 28.2115C32.0011 28.9583 31.526 29.3657 31.1864 29.5018C31.526 29.637 31.7296 29.7732 31.7975 29.9091ZM36.4831 27.9395H33.8344V28.8223H36.4149V29.7731H33.8344V30.7239H36.4831V31.7424H32.6804V26.9212H36.4831V27.9395ZM39.3348 31.7425H37.1618V30.724H39.3348C39.5381 30.724 39.6743 30.724 39.8104 30.5881C39.8784 30.52 39.9458 30.3845 39.9458 30.2485C39.9458 30.1124 39.8784 29.9772 39.8104 29.9092C39.7422 29.8413 39.6062 29.7733 39.4026 29.7733C38.3161 29.7054 37.0259 29.7733 37.0259 28.2796C37.0259 27.6005 37.4333 26.8534 38.6557 26.8534H40.8964V28.0076H38.7916C38.5879 28.0076 38.4519 28.0076 38.316 28.0756C38.1805 28.1437 38.1805 28.2796 38.1805 28.4152C38.1805 28.619 38.316 28.687 38.4518 28.7544C38.5879 28.8225 38.7236 28.8225 38.8592 28.8225H39.4705C40.0817 28.8225 40.489 28.9583 40.7606 29.23C40.9644 29.4338 41.1002 29.7733 41.1002 30.2485C41.1002 31.2668 40.4891 31.7425 39.3348 31.7425ZM45.1746 31.2668C44.9033 31.5388 44.4277 31.7425 43.7484 31.7425H41.5759V30.724H43.7483C43.9521 30.724 44.0882 30.724 44.2239 30.5881C44.2916 30.52 44.3597 30.3845 44.3597 30.2485C44.3597 30.1124 44.2916 29.9772 44.2239 29.9092C44.1559 29.8413 44.0203 29.7733 43.8165 29.7733C42.7303 29.7054 41.4398 29.7733 41.4398 28.2797C41.4398 27.6343 41.809 27.0513 42.7197 26.8781C42.8286 26.8631 42.9436 26.8534 43.0696 26.8534H45.3106V28.0076H43.8165H43.2734H43.2054C43.0016 28.0076 42.866 28.0076 42.7303 28.0756C42.662 28.1437 42.594 28.2796 42.594 28.4152C42.594 28.619 42.662 28.687 42.866 28.7544C43.0016 28.8225 43.1375 28.8225 43.2734 28.8225H43.3409H43.8843C44.1811 28.8225 44.4055 28.8591 44.6109 28.9312C44.799 28.9993 45.4216 29.2778 45.5609 30.0049C45.573 30.0811 45.5819 30.1605 45.5819 30.2485C45.5819 30.6561 45.446 30.9955 45.1746 31.2668Z" fill="white"/>
</symbol>

<symbol  viewBox="0 0 50 50" id="maestro">
<path d="M50 39.2853C50 40.9177 48.6768 42.241 47.0444 42.241H2.95557C1.32324 42.241 0 40.9175 0 39.2853V10.7145C0 9.08203 1.32324 7.75879 2.95557 7.75879H47.0443C48.6768 7.75879 49.9999 9.08213 49.9999 10.7145L50 39.2853Z" fill="#E7E8E3"/>
<path opacity="0.15" d="M2.10127 39.2853V10.7145C2.10127 9.08203 3.42471 7.75879 5.05703 7.75879H2.95547C1.32324 7.75879 0 9.08223 0 10.7145V39.2853C0 40.9177 1.32324 42.241 2.95557 42.241H5.05713C3.4248 42.241 2.10127 40.9175 2.10127 39.2853Z" fill="#202121"/>
<path d="M21.9452 21.4054C21.9452 18.8193 23.1364 16.512 25 15.001C23.5836 13.8527 21.7792 13.1638 19.8138 13.1638C15.2621 13.1638 11.5723 16.8536 11.5723 21.4054C11.5723 25.957 15.2621 29.6466 19.8138 29.6466C21.7792 29.6466 23.5836 28.9583 25 27.81C23.1364 26.2985 21.9452 23.9913 21.9452 21.4054Z" fill="#EA001B"/>
<path d="M30.1864 13.1638C28.221 13.1638 26.4164 13.8526 25 15.001C26.8637 16.5119 28.0549 18.8193 28.0549 21.4054C28.0549 23.9913 26.8637 26.2986 25 27.8099C26.4164 28.9581 28.221 29.6465 30.1864 29.6465C34.7381 29.6465 38.4277 25.9569 38.4277 21.4053C38.4277 16.8538 34.7381 13.1638 30.1864 13.1638Z" fill="#0099DF"/>
<path d="M28.0551 21.4051C28.0551 18.819 26.8639 16.5117 25.0002 15.0007C23.1366 16.5116 21.9454 18.819 21.9454 21.4051C21.9454 23.991 23.1366 26.2983 25.0002 27.8096C26.8639 26.2982 28.0551 23.991 28.0551 21.4051Z" fill="#6C6BBD"/>
<path d="M12.3152 33.2642C11.6967 33.2642 11.1038 33.5925 10.7151 34.1469C10.3124 33.5847 9.73347 33.2642 9.11589 33.2642C8.74548 33.2642 8.3363 33.4343 7.98435 33.7332L7.81667 33.423C7.8073 33.4056 7.78884 33.3945 7.76892 33.3945H6.74812C6.71824 33.3945 6.69373 33.4188 6.69373 33.4489V38.1368C6.69373 38.1668 6.71814 38.1912 6.74812 38.1912H8.01082C8.04089 38.1912 8.06521 38.1669 8.06521 38.1368V35.4463C8.20574 34.9105 8.54695 34.5909 8.97908 34.5909C9.51521 34.5909 9.93484 35.1261 9.93484 35.8092V38.1368C9.93484 38.1668 9.95925 38.1912 9.98923 38.1912H11.1679C11.198 38.1912 11.2223 38.1669 11.2223 38.1368V35.7349C11.2422 35.1848 11.6092 34.5909 12.1678 34.5909C12.704 34.5909 13.1236 35.126 13.1236 35.8092V38.1368C13.1236 38.1668 13.148 38.1912 13.178 38.1912H14.3567C14.3868 38.1912 14.4111 38.1669 14.4111 38.1368V35.8092C14.4109 34.4059 13.471 33.2642 12.3152 33.2642Z" fill="#34495E"/>
<path d="M20.1543 33.395H19.1442C19.1192 33.395 19.097 33.4123 19.0913 33.4369L19.0065 33.7966C18.5761 33.4458 18.038 33.2537 17.4814 33.2537C16.1227 33.2537 15.0172 34.3905 15.0172 35.7879C15.0172 37.1853 16.1227 38.3222 17.4814 38.3222C18.0286 38.3222 18.5579 38.1364 18.9846 37.7968V38.1374C18.9846 38.1673 19.009 38.1917 19.039 38.1917H20.1544C20.1845 38.1917 20.2088 38.1674 20.2088 38.1374V33.4495C20.2086 33.4193 20.1844 33.395 20.1543 33.395ZM17.6498 37.0061C17.3485 37.0061 17.0707 36.8839 16.8487 36.6547C16.6334 36.4112 16.515 36.1034 16.515 35.7878C16.515 35.4666 16.6364 35.151 16.847 34.9228C17.0708 34.6917 17.3484 34.5696 17.6499 34.5696C17.9506 34.5696 18.2317 34.6947 18.4422 34.9228C18.6563 35.144 18.774 35.4511 18.774 35.7878C18.774 36.119 18.6589 36.4185 18.4413 36.6539C18.2315 36.881 17.9504 37.0061 17.6498 37.0061Z" fill="#34495E"/>
<path d="M23.3533 33.2317C21.9946 33.2317 20.8889 34.3734 20.8889 35.7768C20.8889 37.1803 21.9946 38.322 23.3533 38.322C24.0792 38.322 24.7581 37.9976 25.216 37.4317C25.2255 37.42 25.2297 37.4047 25.2276 37.3897C25.2254 37.3747 25.2171 37.3614 25.2046 37.3528L24.2155 36.6675C24.1936 36.6524 24.1641 36.6553 24.1454 36.6745C23.9414 36.8852 23.672 37.006 23.4057 37.006C23.1117 37.006 22.8458 36.8807 22.6362 36.6435C22.5451 36.5412 22.4711 36.4206 22.4116 36.2771H25.7209C25.7467 36.2771 25.7688 36.259 25.7741 36.2338C25.804 36.0903 25.8171 35.9493 25.8171 35.7769C25.8172 34.3734 24.712 33.2317 23.3533 33.2317ZM22.3876 35.3417C22.45 35.1726 22.5354 35.0206 22.6354 34.9001C22.8483 34.6696 23.1148 34.5478 23.4058 34.5478C23.6917 34.5478 23.9684 34.6758 24.1652 34.8996C24.2761 35.0233 24.3624 35.175 24.4167 35.3418L22.3876 35.3417Z" fill="#34495E"/>
<path d="M28.7488 35.3016C28.6455 35.2653 28.5432 35.2335 28.4463 35.2034C28.0215 35.0714 27.7826 34.9859 27.8166 34.7615C27.8444 34.5417 27.9816 34.4255 28.2131 34.4255C28.488 34.4255 28.8659 34.5927 29.2771 34.8963C29.2894 34.9052 29.3048 34.9087 29.3198 34.906C29.3347 34.9031 29.3478 34.8942 29.3557 34.8811L29.966 33.8915C29.9817 33.8661 29.9738 33.8327 29.9486 33.8167C29.3372 33.4352 28.906 33.2537 28.1097 33.2537C27.1609 33.2537 26.4453 33.8895 26.4453 34.7328C26.4453 35.6868 27.1094 35.9752 27.9774 36.2529C28.3552 36.3749 28.6026 36.4766 28.6026 36.7666C28.6026 36.9859 28.4383 37.1167 28.1628 37.1167C27.8777 37.1167 27.4087 36.956 27.0253 36.5031C27.0153 36.4914 27.0009 36.4844 26.9854 36.4838C26.9712 36.4848 26.9554 36.4896 26.9444 36.5005L26.1027 37.3816C26.0825 37.4027 26.0827 37.436 26.1029 37.4569C26.6426 38.0147 27.4225 38.3219 28.2993 38.3219C29.2196 38.3219 30.0268 37.6103 30.0268 36.7991C30.0268 36.0953 29.5601 35.5491 28.7488 35.3016Z" fill="#34495E"/>
<path d="M33.9292 33.3951H32.9312V31.7092C32.9312 31.6792 32.9069 31.6548 32.8768 31.6548H31.5403C31.5104 31.6548 31.4859 31.6791 31.4859 31.7092V33.3951H30.593C30.5631 33.3951 30.5386 33.4194 30.5386 33.4495V34.7222C30.5386 34.7521 30.563 34.7766 30.593 34.7766H31.4859V38.1375C31.4859 38.1675 31.5104 38.1919 31.5403 38.1919H32.8768C32.9068 38.1919 32.9312 38.1676 32.9312 38.1375V34.7766H33.9292C33.9593 34.7766 33.9836 34.7522 33.9836 34.7222V33.4495C33.9836 33.4194 33.9593 33.3951 33.9292 33.3951Z" fill="#34495E"/>
<path d="M38.2827 33.4095C38.0391 33.322 37.7671 33.2759 37.496 33.2759C36.8508 33.2759 36.3041 33.4921 35.978 33.8724L35.8212 33.4315C35.8136 33.4099 35.7932 33.3954 35.77 33.3954H34.7492C34.7193 33.3954 34.6948 33.4197 34.6948 33.4498V38.1377C34.6948 38.1677 34.7192 38.1921 34.7492 38.1921H36.0646C36.0947 38.1921 36.119 38.1678 36.119 38.1377L36.1182 35.5587C36.2188 35.0069 36.6861 34.6065 37.2294 34.6065C37.3967 34.6065 37.564 34.6438 37.7264 34.7174C37.7395 34.7235 37.7546 34.7237 37.7684 34.7186C37.782 34.7132 37.7932 34.7026 37.7988 34.6892L38.3144 33.4818C38.3202 33.4681 38.3202 33.4524 38.3142 33.4388C38.3083 33.4253 38.2968 33.4145 38.2827 33.4095Z" fill="#34495E"/>
<path d="M41.0321 33.2537C39.6213 33.2537 38.4731 34.3905 38.4731 35.7879C38.4731 37.1853 39.6213 38.3222 41.0321 38.3222C42.473 38.3222 43.6016 37.209 43.6016 35.7879C43.6016 34.3905 42.449 33.2537 41.0321 33.2537ZM41.0426 37.0169C40.7433 37.0169 40.459 36.8889 40.2609 36.6637C40.0335 36.4288 39.9184 36.134 39.9184 35.7878C39.9184 35.4485 40.0397 35.1417 40.2636 34.9202C40.4567 34.6905 40.7408 34.5587 41.0427 34.5587C41.3518 34.5587 41.6216 34.681 41.8447 34.922C42.0525 35.147 42.167 35.4507 42.167 35.777C42.167 36.1142 42.0523 36.4297 41.8456 36.6637C41.6186 36.8981 41.3484 37.0169 41.0426 37.0169Z" fill="#34495E"/>
</symbol>


<symbol  viewBox="0 0 41 41" id="phone">
<g clip-path="url(#clip0)">
<path d="M29.6315 23.7153C28.6284 23.5834 27.639 23.3374 26.6933 22.9849C25.6437 22.5927 24.4506 22.8455 23.6504 23.6347L22.6275 24.6549C20.3308 23.2575 18.3991 21.3298 16.9976 19.0379L18.022 18.0157C18.8105 17.2189 19.0654 16.0272 18.6711 14.9804C18.3172 14.0339 18.0705 13.0472 17.938 12.04C17.7364 10.616 16.5064 9.53222 15.0625 9.5657H11.7642C11.6781 9.5657 11.592 9.56978 11.5073 9.57803C10.7406 9.64633 10.047 10.0099 9.55363 10.5996C9.06027 11.1906 8.82661 11.9375 8.89692 12.7138C9.26727 16.1953 10.4713 19.5887 12.3751 22.5222C14.1052 25.2398 16.4586 27.5891 19.1769 29.313C22.1063 31.2086 25.4901 32.4106 28.9765 32.7885C29.0653 32.7966 29.1542 32.8001 29.2457 32.8001C30.0158 32.7974 30.7381 32.4953 31.2807 31.948C31.8232 31.4027 32.1198 30.6784 32.1171 29.9123V26.6284C32.1489 25.1708 31.0842 23.9197 29.6315 23.7153ZM30.7515 26.6222V29.9165C30.7529 30.3197 30.597 30.6996 30.3121 30.9866C30.0272 31.2736 29.6472 31.4321 29.2448 31.4335C29.1956 31.4335 29.1464 31.4314 29.1108 31.4287C25.85 31.0754 22.6725 29.9465 19.9153 28.1624C17.3604 26.5422 15.1518 24.3379 13.5255 21.7843C11.7345 19.025 10.6043 15.8393 10.2572 12.5812C10.2203 12.1794 10.3433 11.7872 10.6022 11.4777C10.8619 11.1675 11.2268 10.9768 11.6313 10.9406C11.6758 10.9365 11.7201 10.9338 11.7646 10.9338H15.0698C15.0739 10.9338 15.0794 10.9338 15.0842 10.9338C15.8358 10.9338 16.4795 11.49 16.5854 12.228C16.731 13.3309 17.0023 14.4188 17.3931 15.4629C17.5995 16.0129 17.4662 16.6382 17.0549 17.053L15.6588 18.447C15.4401 18.6643 15.395 19.0012 15.5474 19.269C17.1731 22.122 19.5428 24.487 22.4005 26.1084C22.6677 26.2595 23.0032 26.215 23.2205 25.9978L24.6145 24.6072C25.034 24.1938 25.6607 24.0585 26.2155 24.2676C27.2589 24.6564 28.3489 24.9271 29.4483 25.0719C30.2103 25.1792 30.7706 25.8386 30.7514 26.606C30.7515 26.6106 30.7515 26.6168 30.7515 26.6222Z" fill="#FC9D9D"/>
<path d="M20.5001 0.000976562C9.19656 0.000976562 0.000339856 9.1972 0.000339856 20.5007C0.000339856 24.41 1.10324 28.1998 3.1935 31.4859L0.04198 40.0821C-0.0489076 40.3281 0.00986905 40.6048 0.193006 40.7928C0.324172 40.9281 0.501863 41.0005 0.683638 41.0005C0.756108 41.0005 0.829219 40.9889 0.899607 40.9657L9.81636 37.9939C13.0321 39.9612 16.7186 41.0006 20.5002 41.0006C31.8037 41.0006 40.9999 31.8044 40.9999 20.5008C40.9999 9.19728 31.8036 0.000976562 20.5001 0.000976562ZM20.5007 39.6338C16.8696 39.6338 13.332 38.6075 10.2714 36.6662C10.1607 36.5965 10.0335 36.5602 9.90509 36.5602C9.83198 36.5602 9.75951 36.5718 9.68912 36.5958L1.81377 39.2205L4.59493 31.6355C4.6694 31.4319 4.64346 31.2051 4.5239 31.024C2.45887 27.8964 1.36766 24.2577 1.36766 20.5008C1.36766 9.95097 9.95089 1.36773 20.5007 1.36773C31.0506 1.36773 39.6338 9.95097 39.6338 20.5008C39.6338 31.0507 31.0506 39.6338 20.5007 39.6338Z" fill="#FC9D9D"/>
</g>
<defs>
<clipPath id="clip0">
<rect width="41" height="41" fill="white"/>
</clipPath>
</defs>
</symbol>


<symbol   viewBox="0 0 20 17"  id="twitter">
<path d="M17.9297 4.4375C18.7109 3.85156 19.4141 3.14844 19.9609 2.32812C19.2578 2.64062 18.4375 2.875 17.6172 2.95312C18.4766 2.44531 19.1016 1.66406 19.4141 0.6875C18.6328 1.15625 17.7344 1.50781 16.8359 1.70312C16.0547 0.882812 15 0.414062 13.8281 0.414062C11.5625 0.414062 9.72656 2.25 9.72656 4.51562C9.72656 4.82812 9.76562 5.14062 9.84375 5.45312C6.44531 5.25781 3.39844 3.61719 1.36719 1.15625C1.01562 1.74219 0.820312 2.44531 0.820312 3.22656C0.820312 4.63281 1.52344 5.88281 2.65625 6.625C1.99219 6.58594 1.32812 6.42969 0.78125 6.11719V6.15625C0.78125 8.14844 2.1875 9.78906 4.0625 10.1797C3.75 10.2578 3.35938 10.3359 3.00781 10.3359C2.73438 10.3359 2.5 10.2969 2.22656 10.2578C2.73438 11.8984 4.25781 13.0703 6.05469 13.1094C4.64844 14.2031 2.89062 14.8672 0.976562 14.8672C0.625 14.8672 0.3125 14.8281 0 14.7891C1.79688 15.9609 3.94531 16.625 6.28906 16.625C13.8281 16.625 17.9297 10.4141 17.9297 4.98438C17.9297 4.78906 17.9297 4.63281 17.9297 4.4375Z" fill="#05297F"/>
</symbol>


<symbol  viewBox="0 0 11 21" id="facebook">
<path d="M3.69531 20.5V11.5547H0.6875V8H3.69531V5.1875C3.69531 3.70312 4.11198 2.55729 4.94531 1.75C5.77865 0.916667 6.88542 0.5 8.26562 0.5C9.38542 0.5 10.2969 0.552083 11 0.65625V3.82031H9.125C8.42188 3.82031 7.9401 3.97656 7.67969 4.28906C7.47135 4.54948 7.36719 4.96615 7.36719 5.53906V8H10.6875L10.2188 11.5547H7.36719V20.5H3.69531Z" fill="#05297F"/>
</symbol>


<symbol  viewBox="0 0 18 19" id="instagram">
<path d="M9.25 5.00781C6.75 5.00781 4.75781 7.03906 4.75781 9.5C4.75781 12 6.75 13.9922 9.25 13.9922C11.7109 13.9922 13.7422 12 13.7422 9.5C13.7422 7.03906 11.7109 5.00781 9.25 5.00781ZM9.25 12.4297C7.64844 12.4297 6.32031 11.1406 6.32031 9.5C6.32031 7.89844 7.60938 6.60938 9.25 6.60938C10.8516 6.60938 12.1406 7.89844 12.1406 9.5C12.1406 11.1406 10.8516 12.4297 9.25 12.4297ZM14.9531 4.85156C14.9531 4.26562 14.4844 3.79688 13.8984 3.79688C13.3125 3.79688 12.8438 4.26562 12.8438 4.85156C12.8438 5.4375 13.3125 5.90625 13.8984 5.90625C14.4844 5.90625 14.9531 5.4375 14.9531 4.85156ZM17.9219 5.90625C17.8438 4.5 17.5312 3.25 16.5156 2.23438C15.5 1.21875 14.25 0.90625 12.8438 0.828125C11.3984 0.75 7.0625 0.75 5.61719 0.828125C4.21094 0.90625 3 1.21875 1.94531 2.23438C0.929688 3.25 0.617188 4.5 0.539062 5.90625C0.460938 7.35156 0.460938 11.6875 0.539062 13.1328C0.617188 14.5391 0.929688 15.75 1.94531 16.8047C3 17.8203 4.21094 18.1328 5.61719 18.2109C7.0625 18.2891 11.3984 18.2891 12.8438 18.2109C14.25 18.1328 15.5 17.8203 16.5156 16.8047C17.5312 15.75 17.8438 14.5391 17.9219 13.1328C18 11.6875 18 7.35156 17.9219 5.90625ZM16.0469 14.6562C15.7734 15.4375 15.1484 16.0234 14.4062 16.3359C13.2344 16.8047 10.5 16.6875 9.25 16.6875C7.96094 16.6875 5.22656 16.8047 4.09375 16.3359C3.3125 16.0234 2.72656 15.4375 2.41406 14.6562C1.94531 13.5234 2.0625 10.7891 2.0625 9.5C2.0625 8.25 1.94531 5.51562 2.41406 4.34375C2.72656 3.60156 3.3125 3.01562 4.09375 2.70312C5.22656 2.23438 7.96094 2.35156 9.25 2.35156C10.5 2.35156 13.2344 2.23438 14.4062 2.70312C15.1484 2.97656 15.7344 3.60156 16.0469 4.34375C16.5156 5.51562 16.3984 8.25 16.3984 9.5C16.3984 10.7891 16.5156 13.5234 16.0469 14.6562Z" fill="#05297F"/>


</symbol>


<symbol id="icon-cheveron-outline-up" viewBox="0 0 20 20">
<path d="M0 10c0-5.523 4.477-10 10-10s10 4.477 10 10v0c0 5.523-4.477 10-10 10s-10-4.477-10-10v0zM10 18c4.418 0 8-3.582 8-8s-3.582-8-8-8v0c-4.418 0-8 3.582-8 8s3.582 8 8 8v0zM10.7 7.46l3.55 3.54-1.41 1.41-2.84-2.81-2.83 2.8-1.41-1.4 4.24-4.24 0.7 0.7z "></path>
</symbol>

<symbol id="scales2" viewBox="0 0 34 34">
<circle cx="17" cy="17" r="17" fill="white"/>
<path d="M17.3656 22.1012V10.2746H21.9324C21.9324 10.2746 19.4539 17.0422 19.4996 17.1406C19.6438 18.6207 20.9305 19.7562 22.4598 19.7562C23.9855 19.7562 25.2336 18.6242 25.4129 17.1477C25.4621 17.0457 22.9836 10.2746 22.9836 10.2746H23.409V9.51875H17.3621V8.38672H16.6273V9.51875H10.5805V10.2746H11.0094C11.0094 10.2746 8.5625 16.9227 8.5625 17C8.63633 18.5504 9.95469 19.7562 11.5297 19.7562C13.1047 19.7562 14.4266 18.5469 14.5355 17C14.5355 16.9543 12.057 10.2746 12.057 10.2746H16.6238V22.0977H8.38672V25.6133H25.6133V22.1012H17.3656ZM22.4598 19.0039C21.398 19.0039 20.5156 18.2867 20.259 17.341H24.657C24.4039 18.2832 23.525 19.0039 22.4598 19.0039ZM20.3363 16.6238L22.4633 10.9566L24.5516 16.6238H20.3363ZM11.5402 19.0039C10.4785 19.0039 9.59609 18.2867 9.33945 17.341H13.7375C13.4809 18.2832 12.602 19.0039 11.5402 19.0039ZM9.44844 16.6238L11.5754 10.9566L13.6637 16.6238H9.44844ZM24.9172 24.8961H9.12148V22.857H24.9172V24.8961Z" fill="black"/>
</symbol>

<symbol id="heart2" viewBox="0 0 34 34">
<circle cx="17" cy="17" r="17" fill="white"/>
<path d="M17 24.9986C16.7437 24.9986 16.4967 24.9058 16.3042 24.7371C15.577 24.1013 14.8759 23.5038 14.2574 22.9767L14.2542 22.974C12.4408 21.4286 10.8748 20.094 9.78528 18.7794C8.56731 17.3097 8 15.9162 8 14.3939C8 12.9149 8.50716 11.5504 9.42795 10.5516C10.3597 9.54097 11.6383 8.98438 13.0284 8.98438C14.0675 8.98438 15.019 9.31287 15.8566 9.96065C16.2793 10.2876 16.6624 10.6878 17 11.1546C17.3377 10.6878 17.7207 10.2876 18.1435 9.96065C18.9811 9.31287 19.9327 8.98438 20.9717 8.98438C22.3617 8.98438 23.6404 9.54097 24.5722 10.5516C25.493 11.5504 26 12.9149 26 14.3939C26 15.9162 25.4328 17.3097 24.2149 18.7792C23.1253 20.094 21.5595 21.4285 19.7463 22.9737C19.1267 23.5016 18.4245 24.1001 17.6957 24.7374C17.5033 24.9058 17.2561 24.9986 17 24.9986ZM13.0284 10.0388C11.9363 10.0388 10.9329 10.4747 10.203 11.2662C9.46228 12.0697 9.05428 13.1805 9.05428 14.3939C9.05428 15.6742 9.53012 16.8193 10.597 18.1066C11.6282 19.3509 13.1621 20.658 14.938 22.1715L14.9413 22.1743C15.5622 22.7034 16.266 23.3033 16.9985 23.9438C17.7354 23.302 18.4403 22.7012 19.0624 22.1713C20.8382 20.6578 22.3719 19.3509 23.4031 18.1066C24.4699 16.8193 24.9457 15.6742 24.9457 14.3939C24.9457 13.1805 24.5377 12.0697 23.797 11.2662C23.0672 10.4747 22.0637 10.0388 20.9717 10.0388C20.1716 10.0388 19.437 10.2931 18.7884 10.7946C18.2104 11.2418 17.8078 11.807 17.5717 12.2025C17.4503 12.4059 17.2366 12.5273 17 12.5273C16.7634 12.5273 16.5497 12.4059 16.4283 12.2025C16.1924 11.807 15.7897 11.2418 15.2116 10.7946C14.563 10.2931 13.8284 10.0388 13.0284 10.0388Z" fill="black"/>
</symbol>

<symbol id="view" viewBox="0 0 34 34">
<circle cx="17" cy="17" r="17" fill="white"/>
<path d="M25.0192 17.2755L25.188 17L25.0192 16.7244C24.9909 16.6784 24.312 15.5825 22.9929 14.4843C21.2385 13.0238 19.1717 12.2517 17.0158 12.2517C14.8604 12.2517 12.7885 13.0234 11.0241 14.4832C9.69753 15.5808 9.01088 16.6759 8.98232 16.722L8.80997 17L8.98232 17.278C9.01088 17.3241 9.69753 18.4192 11.0241 19.5168C12.7885 20.9766 14.8604 21.7483 17.0158 21.7483C19.1717 21.7483 21.2385 20.9762 22.9929 19.5157C24.312 18.4175 24.9909 17.3216 25.0192 17.2755ZM22.2901 18.7283C20.7119 20.0324 18.9373 20.6935 17.0158 20.6935C15.0936 20.6935 13.3133 20.032 11.7244 18.7271C10.9026 18.0522 10.3454 17.3689 10.0726 17C10.3456 16.6309 10.9027 15.9476 11.7244 15.2728C13.3133 13.968 15.0935 13.3064 17.0158 13.3064C18.9373 13.3064 20.7117 13.9676 22.2901 15.2716C23.1081 15.9475 23.6605 16.6318 23.9296 17C23.6602 17.3683 23.108 18.0526 22.2901 18.7283Z" fill="black"/>
<path d="M17 13.8313C15.2528 13.8313 13.8313 15.2528 13.8313 17C13.8313 18.7473 15.2528 20.1688 17 20.1688C18.7472 20.1688 20.1687 18.7473 20.1687 17C20.1687 15.2528 18.7472 13.8313 17 13.8313ZM17 19.1141C15.8344 19.1141 14.886 18.1657 14.886 17C14.886 15.8344 15.8344 14.886 17 14.886C18.1656 14.886 19.114 15.8344 19.114 17C19.114 18.1657 18.1656 19.1141 17 19.1141Z" fill="black"/>
<path d="M9.05469 9.05469H11.2563V8H8V11.2168H9.05469V9.05469Z" fill="black"/>
<path d="M22.7437 8V9.05469H24.9453V11.2168H26V8H22.7437Z" fill="black"/>
<path d="M9.05469 22.7832H8V26H11.2563V24.9453H9.05469V22.7832Z" fill="black"/>
<path d="M24.9453 24.9453H22.7437V26H26V22.7832H24.9453V24.9453Z" fill="black"/>
</symbol>

</svg>
