<?xml version="1.0" standalone="no"?>
<!DOCTYPE svg PUBLIC "-//W3C//DTD SVG 20010904//EN"
 "http://www.w3.org/TR/2001/REC-SVG-20010904/DTD/svg10.dtd">
<svg version="1.0" xmlns="http://www.w3.org/2000/svg"
 width="417.000000pt" height="417.000000pt" viewBox="0 0 417.000000 417.000000"
 preserveAspectRatio="xMidYMid meet">
<metadata>
Created by potrace 1.14, written by Peter Selinger 2001-2017
</metadata>
<g transform="translate(0.000000,417.000000) scale(0.100000,-0.100000)"
fill="#000000" stroke="none">
<path d="M21 2713 c-18 -15 -23 -26 -18 -45 8 -30 20 -36 90 -44 57 -7 131
-35 160 -62 32 -29 55 -85 62 -152 3 -35 8 -67 10 -70 1 -3 6 -34 10 -70 4
-36 8 -67 10 -70 1 -3 6 -32 10 -65 3 -32 8 -62 10 -65 2 -3 6 -37 10 -75 4
-39 9 -73 11 -77 3 -4 -8 -14 -23 -22 -64 -33 -93 -74 -93 -131 0 -89 74 -149
197 -157 27 -2 32 -5 27 -21 -16 -51 22 -119 83 -151 36 -18 184 -23 227 -6
59 22 108 107 91 159 -5 17 5 18 139 18 l145 -1 -1 -44 c-1 -50 20 -84 72
-119 28 -20 46 -23 128 -23 78 0 100 4 128 21 108 66 100 182 -17 242 l-54 28
-492 0 c-461 -1 -493 1 -514 18 -29 24 -32 45 -7 68 18 16 41 18 194 19 123 1
172 -2 167 -10 -3 -6 0 -5 8 2 15 14 33 17 25 4 -3 -5 1 -9 9 -9 8 0 12 3 10
7 -2 3 46 6 107 7 126 1 158 12 158 53 0 35 -33 50 -106 50 -52 0 -55 1 -50
23 l6 22 -11 -22 c-7 -13 -18 -23 -24 -23 -15 0 -28 28 -19 41 10 16 24 10 18
-8 -5 -14 -4 -15 4 -4 5 7 16 18 23 23 11 8 11 9 -2 5 -9 -3 -22 -1 -29 3 -17
10 -23 43 -7 37 7 -3 11 -10 10 -16 -2 -6 2 -11 7 -11 6 0 10 7 10 15 0 18 12
19 27 4 14 -14 13 7 -1 29 -5 8 -1 21 9 32 9 10 14 24 10 31 -5 7 -3 10 6 7 8
-3 13 -12 11 -21 -1 -8 2 -18 8 -22 6 -4 7 1 3 11 -5 13 -3 15 8 9 8 -5 7 -1
-3 12 -10 11 -18 26 -18 34 0 9 8 5 20 -11 l21 -25 -12 28 c-7 15 -15 27 -18
27 -10 0 -37 -20 -27 -20 5 0 3 -7 -4 -15 -7 -8 -16 -12 -21 -9 -5 3 -6 -3 -3
-13 5 -15 4 -16 -5 -3 -6 8 -11 10 -11 4 0 -5 6 -16 13 -23 10 -11 9 -13 -5
-8 -10 3 -20 1 -24 -5 -4 -6 -3 -8 3 -5 6 4 16 0 23 -8 15 -18 7 -19 -22 -4
-12 6 -18 7 -14 1 3 -5 -1 -13 -10 -16 -8 -3 -13 -10 -10 -15 4 -5 0 -12 -6
-14 -10 -4 -10 -6 0 -6 10 -1 9 -5 -3 -18 -16 -15 -16 -18 -1 -28 9 -7 16 -15
16 -19 0 -13 -23 -5 -36 12 -13 16 -14 16 -8 -3 5 -16 4 -17 -5 -5 -8 11 -7
18 4 26 8 6 12 14 8 17 -3 4 -1 7 6 7 7 0 10 4 7 9 -3 5 7 27 24 49 16 22 27
42 24 44 -2 3 9 19 25 36 16 16 27 33 24 36 -4 3 1 14 10 24 10 10 14 22 11
25 -4 4 1 9 10 13 9 3 13 10 10 15 -3 5 2 6 11 3 12 -5 13 -10 4 -20 -6 -8
-15 -12 -18 -9 -4 2 -8 -2 -8 -10 0 -12 3 -12 15 -2 13 10 14 9 10 -3 -3 -8
-12 -14 -21 -14 -9 1 -14 -3 -10 -9 4 -6 1 -7 -7 -2 -9 5 -11 4 -6 -4 6 -9 14
-8 33 4 24 16 25 16 18 -6 -6 -19 -5 -20 8 -8 9 9 12 18 6 23 -11 12 -12 26
-1 26 5 0 14 -10 20 -22 6 -13 11 -17 11 -10 1 6 -8 21 -19 32 -27 27 -3 26
26 -1 17 -16 24 -18 30 -7 4 7 3 10 -1 5 -9 -8 -45 20 -45 35 0 5 10 4 23 -2
20 -10 20 -10 5 3 -17 13 -16 15 5 25 20 9 19 10 -11 7 -28 -3 -33 -1 -28 13
5 13 3 13 -9 -2 -8 -11 -15 -25 -15 -30 0 -6 4 -5 9 3 5 8 11 9 15 3 9 -15
-13 -27 -26 -14 -7 7 -6 18 3 33 7 13 12 27 11 31 -1 4 6 4 15 1 9 -4 14 -2
10 3 -3 6 -2 16 3 24 8 13 11 13 22 1 11 -11 11 -13 -1 -6 -9 5 -12 4 -7 -3 3
-6 2 -13 -4 -17 -16 -10 -12 -24 8 -23 9 0 26 -3 37 -7 l20 -8 -20 16 c-16 13
-17 16 -5 17 9 0 23 -6 30 -12 8 -7 7 -4 -2 6 -15 17 -21 18 -45 7 l-28 -12
22 22 23 23 29 -22 c27 -20 30 -20 43 -4 12 16 11 16 -6 2 -18 -14 -19 -13
-13 2 4 12 2 15 -9 11 -7 -3 -14 -1 -14 5 0 6 -11 9 -24 8 -12 -2 -31 3 -40 9
-14 11 -15 13 -2 18 9 4 18 2 22 -4 3 -6 12 -8 19 -5 8 3 19 -1 25 -9 6 -8 17
-12 25 -9 7 3 23 -5 35 -18 13 -13 20 -18 17 -12 -4 7 3 12 19 12 18 0 22 -4
15 -11 -6 -6 -11 -16 -11 -21 0 -6 5 -3 11 7 6 9 14 15 20 12 5 -4 9 -2 9 4 0
5 -6 11 -12 14 -10 3 -10 7 1 20 7 10 10 17 6 17 -5 0 0 9 10 20 11 12 15 24
9 29 -5 5 -79 32 -164 60 -85 29 -162 54 -170 58 -8 3 -26 8 -39 10 -14 2 -32
8 -42 14 -32 16 -48 10 -74 -31 -14 -22 -25 -42 -25 -44 0 -2 15 -10 33 -17
37 -14 30 -12 84 -29 37 -11 41 -15 30 -28 -10 -13 -9 -14 3 -7 12 7 12 5 -1
-11 -9 -10 -32 -46 -50 -80 -19 -33 -77 -133 -129 -222 l-95 -162 -71 0 -71 0
-11 93 c-7 50 -14 103 -17 117 -2 14 -7 41 -9 60 -27 197 -47 312 -61 348 -39
96 -173 176 -316 188 -54 5 -68 3 -88 -13z m940 -636 c-10 -9 -11 -8 -5 6 3
10 9 15 12 12 3 -3 0 -11 -7 -18z m-61 -101 c0 -2 -8 -10 -17 -17 -16 -13 -17
-12 -4 4 13 16 21 21 21 13z m-153 -392 c7 -10 13 -23 13 -30 0 -17 -40 -44
-65 -44 -29 0 -65 28 -65 50 0 45 88 63 117 24z m669 16 c6 0 16 -11 22 -25
10 -21 9 -28 -8 -45 -40 -40 -126 -10 -113 38 6 24 41 43 68 37 11 -3 25 -5
31 -5z"/>
<path d="M3995 2448 c-81 -72 -22 -175 89 -154 76 14 107 105 52 153 -37 31
-105 32 -141 1z"/>
<path d="M1666 2437 c-27 -12 -32 -25 -92 -232 -73 -250 -84 -268 -171 -280
-86 -13 -117 -50 -73 -90 23 -21 77 -22 144 -4 75 20 131 60 159 114 26 51
138 448 131 467 -3 11 -17 23 -31 29 -30 11 -31 11 -67 -4z"/>
<path d="M884 2412 c4 -3 14 -7 22 -8 9 -1 13 0 10 4 -4 3 -14 7 -22 8 -9 1
-13 0 -10 -4z"/>
<path d="M3701 2405 c-6 -9 -52 -227 -97 -470 -8 -38 -17 -86 -20 -105 -17
-85 -18 -84 69 -83 43 0 80 2 82 5 4 4 60 276 79 378 2 14 9 46 15 73 6 26 14
64 17 85 3 20 9 53 15 72 5 19 9 40 9 45 0 14 -159 14 -169 0z"/>
<path d="M2048 2311 c-8 -36 -11 -68 -7 -71 4 -3 46 -5 93 -5 72 1 86 -1 86
-14 0 -9 -20 -117 -45 -240 -29 -143 -42 -226 -36 -230 10 -6 160 -5 166 1 2
2 25 111 51 243 l49 240 95 0 95 0 8 30 c4 17 10 49 13 72 l6 42 -280 -1 -280
0 -14 -67z"/>
<path d="M1295 2341 c-3 -5 -2 -12 3 -15 5 -3 9 1 9 9 0 17 -3 19 -12 6z"/>
<path d="M1215 2281 c-3 -5 0 -13 6 -17 7 -4 9 -3 5 4 -3 5 0 13 6 15 9 4 10
6 1 6 -6 1 -14 -3 -18 -8z"/>
<path d="M1290 2269 c0 -5 5 -7 10 -4 6 3 10 8 10 11 0 2 -4 4 -10 4 -5 0 -10
-5 -10 -11z"/>
<path d="M1115 2249 c-3 -4 2 -6 10 -5 21 3 28 13 10 13 -9 0 -18 -4 -20 -8z"/>
<path d="M2918 2239 c-27 -4 -64 -17 -84 -30 l-36 -22 4 24 c3 23 1 23 -77 24
l-80 0 -47 -235 c-26 -129 -46 -239 -44 -245 3 -10 152 -13 161 -3 5 5 38 148
50 217 14 81 47 112 130 121 l49 5 13 65 c8 36 12 70 11 75 -2 7 -21 8 -50 4z"/>
<path d="M3218 2245 c-2 -2 -19 -5 -38 -6 -67 -6 -154 -70 -190 -140 -29 -55
-38 -126 -25 -191 22 -111 106 -175 216 -165 33 3 71 12 84 21 31 20 35 20 35
-1 0 -18 1 -18 131 -14 26 1 26 2 73 234 25 127 46 237 46 243 0 6 -30 10 -81
9 -80 0 -81 -1 -94 -30 -11 -26 -14 -28 -20 -12 -4 10 -19 23 -34 29 -28 11
-99 27 -103 23z m88 -161 c28 -22 37 -53 28 -106 -20 -125 -204 -135 -204 -11
0 53 29 105 68 125 41 20 75 18 108 -8z"/>
<path d="M3950 2230 c-4 -3 -10 -18 -13 -35 -3 -16 -23 -122 -46 -234 -22
-113 -39 -206 -37 -208 3 -3 106 -6 143 -4 21 1 30 25 47 121 3 14 12 63 21
110 9 47 19 96 22 110 2 14 8 43 13 65 19 81 19 81 -66 80 -42 0 -80 -2 -84
-5z"/>
<path d="M1050 2115 c0 -5 5 -17 10 -25 5 -8 10 -10 10 -5 0 6 -5 17 -10 25
-5 8 -10 11 -10 5z"/>
<path d="M970 2050 c0 -5 5 -10 10 -10 6 0 10 5 10 10 0 6 -4 10 -10 10 -5 0
-10 -4 -10 -10z"/>
<path d="M3170 1711 c0 -12 -8 -21 -22 -24 l-23 -4 23 -8 c20 -7 22 -14 22
-74 0 -36 4 -72 9 -79 11 -18 73 -21 79 -3 3 9 -1 11 -16 7 -32 -11 -47 14
-46 75 1 30 2 57 3 62 1 4 12 7 25 7 14 0 28 5 31 10 4 6 -7 10 -24 10 -28 0
-36 8 -32 33 0 4 -6 7 -14 7 -8 0 -15 -9 -15 -19z"/>
<path d="M2580 1692 c-14 -2 -31 -8 -37 -14 -21 -17 -5 -27 25 -16 41 16 79 4
84 -27 5 -24 3 -25 -42 -25 -65 0 -97 -25 -83 -66 13 -38 52 -53 96 -36 21 8
33 9 35 2 2 -5 8 -10 13 -10 5 0 9 35 9 78 0 63 -4 82 -17 94 -22 18 -49 25
-83 20z m75 -112 c3 -5 1 -18 -5 -29 -22 -41 -100 -39 -100 3 0 12 3 26 7 29
10 11 91 8 98 -3z"/>
<path d="M3025 1692 c-28 -6 -55 -32 -55 -52 0 -25 31 -48 76 -58 29 -6 40
-13 42 -29 4 -27 -41 -39 -83 -23 -17 6 -32 7 -37 2 -11 -11 42 -32 76 -32 32
0 69 23 72 44 4 28 -14 56 -35 56 -10 0 -32 5 -50 11 -24 9 -31 16 -29 33 3
19 9 21 56 20 28 -1 52 2 52 7 0 5 -1 9 -3 9 -1 0 -16 4 -32 8 -17 5 -39 6
-50 4z"/>
<path d="M3354 1688 c-58 -15 -84 -90 -50 -142 23 -36 57 -50 100 -42 41 8 64
36 72 87 10 63 -56 115 -122 97z m74 -34 c37 -25 25 -118 -16 -125 -54 -10
-88 10 -98 56 -12 64 59 108 114 69z"/>
<path d="M3714 1685 c-39 -16 -56 -38 -59 -77 -4 -48 19 -84 60 -98 53 -18
118 2 100 30 -4 6 -15 4 -30 -6 -26 -17 -58 -12 -87 14 -36 31 -22 41 60 44
76 3 77 3 74 28 -8 53 -67 87 -118 65z m74 -31 c42 -29 28 -44 -43 -44 -69 0
-78 7 -45 40 24 24 57 26 88 4z"/>
<path d="M2019 1595 c20 -52 41 -95 47 -95 6 0 24 34 40 75 15 41 31 72 34 69
2 -3 17 -36 31 -72 15 -37 32 -67 39 -67 13 0 85 174 76 182 -11 12 -25 -12
-47 -77 -12 -39 -26 -67 -30 -63 -5 5 -19 37 -32 73 -14 36 -31 65 -38 65 -7
0 -25 -30 -39 -67 -15 -37 -29 -70 -32 -73 -3 -3 -17 28 -33 70 -15 41 -33 75
-40 75 -8 0 -1 -30 24 -95z"/>
<path d="M2335 1664 c-36 -39 -34 -96 4 -135 16 -16 40 -29 54 -29 30 0 87 19
87 29 0 17 -13 18 -40 5 -39 -20 -77 -9 -96 28 -15 29 -15 30 8 28 13 -1 49
-2 81 -1 53 1 57 3 57 25 0 40 -43 76 -90 76 -31 0 -47 -6 -65 -26z m115 -21
l22 -28 -36 -3 c-20 -2 -52 -2 -72 0 l-36 3 22 28 c14 18 31 27 50 27 19 0 36
-9 50 -27z"/>
<path d="M2750 1595 c0 -70 3 -96 12 -93 7 3 13 30 14 69 2 52 7 67 25 81 11
10 27 18 35 18 8 0 14 5 14 10 0 15 -33 12 -58 -6 -14 -10 -22 -11 -20 -3 2 6
-3 14 -9 16 -10 4 -13 -19 -13 -92z"/>
<path d="M3530 1595 c0 -57 4 -95 10 -95 12 0 12 -1 16 75 3 61 25 95 60 95 8
0 14 5 14 10 0 13 -26 13 -50 0 -13 -7 -21 -7 -25 0 -17 28 -25 1 -25 -85z"/>
</g>
</svg>
